<svg width="30" height="30" viewBox="0 0 30 30" fill="none" xmlns="http://www.w3.org/2000/svg">
<path d="M6.875 24.375C9.79167 23.125 11.6667 22.0833 12.5 21.25C13.75 20 10 20 10 13.75C10 9.58333 11.6667 7.5 15 7.5C18.3333 7.5 20 9.58333 20 13.75C20 20 16.25 20 17.5 21.25C18.3333 22.0833 20.2083 23.125 23.125 24.375" stroke="#6F7682" stroke-width="2" stroke-linecap="round"/>
<path d="M15 27.5C21.9036 27.5 27.5 21.9036 27.5 15C27.5 8.09644 21.9036 2.5 15 2.5C8.09644 2.5 2.5 8.09644 2.5 15C2.5 21.9036 8.09644 27.5 15 27.5Z" stroke="#6F7682" stroke-width="2" stroke-linecap="square"/>
</svg>
